<svg xmlns="http://www.w3.org/2000/svg" viewBox="0 0 180 180"><defs><style>.cls-1{fill:#4a4a4a;}.cls-2{fill:#ffda9f;}.cls-3{fill:#ffaa8f;}.cls-4{fill:#1a1a1a;}.cls-5{fill:none;}</style></defs><title>wewAsset 76</title><g id="Layer_2" data-name="Layer 2"><g id="Layer_3" data-name="Layer 3"><circle class="cls-1" cx="89.44" cy="25.16" r="18.69"/><path class="cls-1" d="M161.75,109.28H20.85c-3.93,0-7.49-1.88-9-4.79C2.91,95.28.56,87.38.64,81.24,1,54.41,48.33,29.17,89.44,29.83c43.47.7,90.44,30.54,88.79,56.08-.48,7.42-5,13.78-10.76,19a6.3,6.3,0,0,1-5.72,4.35Z"/><circle class="cls-2" cx="21.67" cy="111.62" r="11.68"/><ellipse class="cls-2" cx="89.44" cy="113.95" rx="70.1" ry="58.42"/><circle class="cls-2" cx="157.2" cy="111.62" r="11.68"/><g id="Face"><circle class="cls-3" cx="137.11" cy="118.63" r="9.35"/><circle class="cls-3" cx="42.7" cy="118.63" r="9.35"/><rect class="cls-4" x="52.05" y="99.93" width="18.69" height="4.67" rx="0.5" transform="translate(-6.98 4.53) rotate(-4)"/><path class="cls-4" d="M61.36,95.26a22.1,22.1,0,0,1-14.23-4.17,25.44,25.44,0,0,1,28-1.87A22.09,22.09,0,0,1,61.36,95.26Z"/><rect class="cls-4" x="108.13" y="99.93" width="18.69" height="4.67" rx="0.5" transform="translate(7.42 -7.95) rotate(4)"/><path class="cls-4" d="M117,95.24a22.07,22.07,0,0,1-13.5-6.13,25.41,25.41,0,0,1,28,2A22.11,22.11,0,0,1,117,95.24Z"/><path class="cls-3" d="M115.91,133.84c-6,3.57-45.75,3.57-51.75,0-.91-.54-1.42-1.39,0-1.8,3.29-.95,12.36,1.8,25.88,1.8s22.09-2.83,25.87-1.8C117.34,132.43,116.83,133.3,115.91,133.84Z"/></g><rect class="cls-5" width="180" height="180"/></g></g></svg>